<?xml version="1.0" standalone="no"?>
<!DOCTYPE svg PUBLIC "-//W3C//DTD SVG 20010904//EN"
 "http://www.w3.org/TR/2001/REC-SVG-20010904/DTD/svg10.dtd">
<svg version="1.0" xmlns="http://www.w3.org/2000/svg"
 width="782.000000pt" height="782.000000pt" viewBox="0 0 782.000000 782.000000"
 preserveAspectRatio="xMidYMid meet">
<metadata>
Created by potrace 1.14, written by Peter Selinger 2001-2017
</metadata>
<g transform="translate(0.000000,782.000000) scale(0.100000,-0.100000)"
fill="#000000" stroke="none">
<path d="M4536 7788 c-9 -13 -15 -18 -12 -12 3 6 -1 11 -9 11 -9 0 -14 -7 -13
-16 2 -11 -3 -15 -16 -13 -13 2 -16 -1 -10 -10 6 -10 5 -11 -7 -1 -12 10 -18
9 -29 -7 -7 -10 -17 -17 -22 -14 -4 3 -9 0 -9 -5 -1 -6 -2 -16 -3 -22 0 -6
-12 -17 -26 -24 -14 -7 -25 -17 -25 -22 0 -4 -4 -7 -9 -5 -5 2 -3 -5 4 -15 8
-10 11 -15 6 -11 -5 4 -16 0 -24 -9 -24 -23 -63 -105 -58 -120 3 -8 -1 -10
-11 -6 -13 5 -15 2 -10 -11 4 -10 3 -15 -3 -11 -6 3 -10 2 -10 -4 0 -5 6 -12
13 -14 7 -4 6 -6 -4 -6 -9 -1 -20 -8 -23 -17 -4 -10 -2 -13 7 -9 6 4 4 0 -5
-8 -10 -8 -18 -21 -18 -29 0 -8 -6 -20 -12 -27 -11 -11 -10 -12 2 -6 12 7 12
5 -1 -11 -9 -10 -14 -25 -11 -33 2 -8 0 -11 -5 -8 -5 3 -10 -3 -10 -14 -1 -12
2 -17 10 -13 7 4 8 3 4 -2 -5 -5 -14 -9 -20 -9 -7 0 -13 -6 -13 -12 -1 -7 -3
-15 -4 -18 -7 -14 -24 -99 -22 -107 1 -5 -3 -8 -9 -8 -7 0 -10 -12 -7 -30 3
-22 0 -30 -11 -31 -11 0 -12 -2 -3 -6 10 -4 10 -9 -3 -23 -11 -12 -13 -20 -6
-25 8 -4 6 -12 -5 -22 -8 -9 -13 -24 -11 -34 3 -11 0 -22 -5 -26 -7 -4 -8 -1
-3 7 5 8 4 11 -2 7 -6 -4 -8 -19 -5 -33 3 -16 1 -24 -4 -21 -6 3 -8 -9 -6 -30
4 -28 2 -34 -9 -27 -12 7 -12 5 0 -9 11 -14 11 -17 0 -17 -11 0 -11 -2 1 -10
8 -5 11 -10 5 -10 -5 0 -15 -11 -22 -25 -8 -19 -8 -23 0 -19 8 5 7 2 0 -7 -14
-14 -18 -53 -5 -45 5 3 9 -1 9 -8 0 -8 -6 -12 -12 -10 -7 3 -11 -4 -10 -18 1
-13 -3 -26 -9 -30 -7 -5 -6 -8 3 -8 11 0 11 -3 0 -17 -12 -14 -12 -15 0 -9 10
7 10 3 -2 -15 -8 -13 -13 -33 -11 -44 1 -10 -3 -26 -9 -34 -10 -12 -9 -13 3
-6 13 8 13 7 1 -8 -7 -9 -10 -17 -7 -17 4 0 2 -8 -3 -18 -7 -13 -6 -23 2 -31
9 -10 9 -11 -3 -6 -12 4 -16 -1 -17 -17 -3 -45 -10 -75 -26 -108 -9 -18 -14
-36 -11 -41 3 -5 0 -9 -6 -9 -6 0 -8 -5 -5 -10 9 -15 -15 -41 -29 -33 -6 3 -2
-4 9 -16 19 -22 19 -23 0 -37 -10 -8 -15 -14 -10 -14 5 0 0 -6 -11 -14 -10 -8
-16 -18 -12 -22 4 -4 0 -13 -10 -20 -9 -8 -12 -14 -5 -14 12 0 10 -37 -3 -49
-4 -3 -4 2 -1 11 3 10 2 20 -3 23 -6 4 -10 -1 -10 -10 0 -9 -5 -13 -11 -9 -8
4 -8 0 0 -15 14 -26 8 -27 -15 -3 -17 16 -18 16 -11 0 3 -10 2 -18 -4 -18 -6
0 -8 -4 -5 -8 3 -5 -2 -21 -9 -36 -8 -16 -13 -32 -10 -36 3 -5 0 -12 -6 -16
-8 -4 -9 -3 -5 4 11 18 -10 14 -25 -5 -10 -11 -10 -14 -1 -9 6 4 12 2 12 -3 0
-6 -5 -11 -11 -11 -6 0 -8 -7 -5 -16 4 -12 2 -15 -9 -10 -18 7 -20 -10 -2 -18
6 -3 2 -3 -9 -1 -17 5 -23 0 -29 -22 -3 -15 -16 -39 -28 -52 -18 -20 -19 -23
-4 -18 23 9 22 0 -2 -13 -17 -9 -19 -7 -16 11 3 15 0 19 -11 15 -9 -4 -12 -2
-8 5 4 6 0 15 -7 20 -20 12 -30 -13 -13 -32 9 -11 11 -19 5 -23 -5 -4 -17 4
-25 16 -9 12 -16 17 -16 10 0 -8 -5 -10 -12 -6 -7 4 -8 3 -4 -4 7 -12 -12 -17
-43 -12 -10 1 -12 -6 -7 -27 7 -26 6 -27 -7 -9 -11 15 -16 16 -22 6 -6 -9 -4
-11 6 -5 11 6 12 5 1 -6 -10 -11 -16 -11 -32 -1 -17 10 -20 10 -20 -2 0 -8 -5
-18 -12 -22 -7 -4 -8 -3 -4 4 4 7 1 12 -8 12 -8 0 -18 -5 -22 -12 -4 -7 -3 -8
4 -4 17 10 15 1 -4 -14 -8 -8 -14 -9 -13 -4 4 21 -2 24 -17 9 -9 -9 -16 -27
-16 -41 0 -13 -5 -27 -11 -31 -6 -3 -7 -1 -3 5 4 7 4 12 -1 12 -12 0 -35 -16
-34 -24 3 -23 -1 -28 -20 -23 -12 3 -22 0 -26 -9 -3 -8 -9 -14 -15 -14 -5 0
-6 6 -3 13 4 6 -1 3 -10 -8 -14 -17 -17 -18 -25 -5 -8 13 -10 13 -10 -2 0 -9
6 -19 13 -21 9 -4 9 -6 -1 -6 -8 -1 -10 -6 -6 -13 4 -7 -3 -4 -15 7 -15 13
-24 16 -29 8 -4 -6 -16 -11 -27 -11 -38 1 -44 -2 -39 -17 4 -8 1 -15 -6 -15
-7 0 -10 -7 -6 -16 3 -8 2 -12 -4 -9 -5 3 -22 -1 -37 -9 -16 -8 -24 -15 -18
-16 5 0 -1 -7 -13 -16 -13 -9 -21 -22 -18 -30 3 -9 0 -11 -11 -7 -10 4 -14 2
-10 -4 4 -7 0 -10 -9 -9 -8 1 -20 9 -25 17 -7 11 -9 11 -9 1 0 -7 -5 -10 -12
-6 -7 5 -8 3 -3 -6 6 -10 4 -12 -8 -7 -10 4 -18 -1 -22 -14 -4 -10 -11 -19
-16 -19 -6 0 -8 -4 -4 -9 3 -5 1 -12 -4 -15 -5 -4 -13 -2 -16 4 -5 8 -12 7
-23 -2 -12 -9 -12 -7 2 9 10 13 22 20 27 18 4 -3 11 0 15 6 4 8 -3 9 -27 4
-19 -4 -38 -14 -42 -21 -5 -8 -14 -11 -20 -7 -8 5 -8 2 1 -9 10 -13 8 -15 -15
-11 -23 4 -25 2 -13 -7 13 -9 12 -10 -5 -8 -28 4 -45 -10 -38 -30 6 -16 6 -16
-11 1 -20 19 -36 22 -36 6 0 -5 4 -8 9 -4 5 3 12 1 15 -4 4 -5 2 -12 -3 -15
-5 -4 -12 -2 -16 4 -4 6 -11 7 -17 4 -7 -5 -8 -2 -3 7 8 12 6 12 -8 0 -9 -7
-15 -17 -12 -21 8 -13 -13 -22 -27 -14 -7 5 -21 9 -30 9 -15 1 -15 -1 -5 -13
10 -13 9 -14 -11 -3 -17 9 -27 9 -37 1 -10 -8 -14 -8 -18 2 -4 10 -6 10 -6 1
-1 -7 -6 -13 -12 -13 -5 0 -7 5 -3 11 5 8 1 8 -13 0 -11 -6 -24 -7 -28 -3 -5
4 -5 2 -1 -5 3 -6 2 -14 -4 -18 -5 -3 -10 -1 -10 6 0 7 -3 9 -7 6 -3 -4 -12
-2 -20 4 -7 6 -13 8 -13 4 0 -4 -6 -2 -14 4 -12 10 -14 8 -10 -11 l5 -23 -12
23 c-13 24 -30 25 -37 1 -3 -11 -2 -12 6 0 6 8 12 9 16 3 8 -13 -10 -26 -23
-17 -5 3 -12 1 -15 -4 -3 -5 -15 -7 -25 -4 -10 3 -29 -1 -41 -7 -13 -7 -25 -8
-29 -4 -10 15 -38 15 -50 1 -8 -10 -7 -14 4 -14 8 0 12 4 9 9 -3 4 2 5 11 2 9
-4 14 -9 11 -11 -9 -10 -42 -10 -54 0 -8 6 -12 5 -12 -4 -1 -9 -6 -7 -16 6 -8
11 -17 19 -19 18 -13 -7 -25 -2 -25 10 0 9 -12 14 -31 15 -17 0 -39 8 -48 16
-13 12 -20 13 -29 4 -9 -9 -13 -7 -18 6 -5 12 -16 16 -44 14 -21 -1 -45 4 -53
11 -10 8 -17 9 -22 1 -3 -5 -11 -10 -16 -10 -6 0 -8 4 -5 9 3 4 -8 7 -25 5
-16 -2 -28 0 -25 5 3 5 -9 12 -27 16 -17 4 -34 8 -37 9 -3 1 -11 5 -17 9 -7 5
-13 5 -13 0 0 -4 -5 -1 -10 7 -7 11 -10 12 -10 2 0 -10 -4 -10 -16 2 -13 14
-42 21 -66 17 -5 0 -8 4 -8 9 0 6 -5 10 -11 10 -5 0 -7 -6 -4 -12 4 -7 -1 -4
-9 6 -9 11 -16 17 -16 13 0 -3 -15 0 -34 8 -18 8 -36 11 -40 8 -3 -4 -6 -1 -6
5 0 7 -7 12 -15 12 -8 0 -15 5 -15 11 0 5 -4 8 -10 4 -5 -3 -7 -13 -4 -23 5
-14 4 -14 -4 -2 -6 8 -8 18 -6 22 3 4 -2 8 -10 8 -9 0 -16 3 -16 8 0 14 -59
41 -66 30 -4 -6 -3 -8 4 -4 6 3 13 2 17 -4 3 -5 -1 -10 -9 -10 -8 0 -20 9 -26
20 -9 16 -15 18 -29 10 -14 -7 -22 -5 -32 8 -13 16 -12 16 6 3 11 -8 7 -1 -10
15 -25 24 -32 27 -44 16 -18 -17 -37 -9 -33 14 2 10 0 16 -4 11 -4 -4 -17 1
-28 10 -16 14 -18 14 -11 3 6 -9 0 -4 -12 10 -15 16 -23 20 -23 11 0 -11 -4
-10 -13 4 -8 10 -19 15 -24 12 -6 -4 -13 0 -17 8 -3 8 -12 12 -21 9 -8 -4 -17
0 -21 9 -3 9 -12 13 -20 10 -8 -3 -14 0 -14 7 0 10 -3 10 -15 0 -12 -10 -15
-10 -15 0 0 8 -3 10 -6 7 -4 -3 -16 -1 -28 5 -29 17 -47 19 -39 5 3 -7 -4 -3
-16 8 -16 13 -24 16 -29 8 -5 -7 -13 -9 -21 -3 -8 4 -20 6 -28 3 -7 -3 -13 0
-13 7 0 6 -4 8 -10 5 -5 -3 -10 -2 -10 4 0 6 -11 6 -30 1 -34 -10 -35 -10 -51
-10 -5 0 -7 -4 -4 -10 3 -6 -1 -7 -9 -4 -20 8 -40 -40 -27 -64 4 -9 6 -23 4
-29 -3 -7 0 -13 6 -13 6 0 11 -7 11 -15 0 -8 3 -15 8 -15 4 0 25 -36 46 -80
22 -44 43 -80 48 -80 4 0 4 -7 1 -17 -4 -10 -2 -14 5 -9 10 6 29 -29 24 -46
-1 -5 3 -8 8 -8 6 0 16 -11 22 -25 7 -16 17 -24 26 -20 12 4 12 2 3 -8 -9 -11
-8 -17 2 -26 8 -6 18 -7 22 -3 5 4 6 0 2 -9 -7 -21 20 -62 83 -127 14 -14 19
-22 12 -18 -6 4 -12 3 -12 -2 0 -6 7 -13 16 -16 8 -3 12 -10 9 -16 -3 -5 -1
-10 6 -10 7 0 9 -3 6 -7 -4 -3 0 -11 8 -17 8 -6 16 -24 19 -40 6 -34 8 -37 34
-39 14 -1 18 -5 12 -12 -5 -6 -5 -17 0 -25 5 -8 6 -18 4 -22 -3 -4 1 -6 8 -3
8 3 19 -7 26 -25 8 -17 18 -28 23 -24 5 3 9 -2 9 -10 0 -9 5 -16 10 -16 6 0
10 -6 9 -12 -4 -33 1 -39 22 -27 16 8 20 8 14 0 -4 -7 -1 -18 5 -26 7 -8 9
-15 4 -15 -5 0 -1 -5 9 -11 9 -6 15 -14 13 -18 -3 -4 4 -8 15 -8 10 -1 19 3
19 8 0 6 5 7 12 3 6 -4 17 1 25 11 7 11 13 13 13 7 0 -7 4 -12 10 -12 5 0 7 7
3 16 -5 14 -3 14 16 3 14 -9 17 -15 9 -18 -7 -2 -33 -12 -57 -23 -34 -14 -41
-21 -32 -32 6 -7 7 -16 3 -20 -4 -4 -2 -7 3 -6 6 1 17 2 25 1 13 -1 13 -2 0
-11 -13 -8 -13 -10 2 -10 9 0 20 -9 23 -20 3 -11 14 -20 23 -20 10 0 13 -3 7
-8 -16 -12 -16 -32 0 -32 8 0 15 -5 15 -11 0 -5 5 -7 12 -3 7 4 8 3 4 -4 -4
-6 -13 -9 -21 -5 -9 3 1 -11 21 -31 21 -21 33 -40 28 -47 -5 -9 -2 -10 10 -6
9 4 15 3 12 -2 -3 -4 3 -17 14 -29 13 -14 16 -23 9 -28 -6 -4 -1 -11 13 -18
12 -7 22 -18 21 -24 -2 -7 3 -12 11 -12 8 0 18 -14 21 -32 4 -18 13 -36 19
-41 7 -5 2 -16 -17 -32 -15 -14 -24 -25 -19 -25 5 0 15 7 22 15 10 12 16 13
26 4 19 -16 17 -29 -8 -57 l-23 -25 22 12 c12 6 29 8 39 4 16 -6 16 -7 -2 -14
-18 -7 -18 -8 0 -8 12 -1 16 -6 13 -16 -4 -8 -2 -17 4 -21 5 -3 7 -15 3 -26
-3 -12 -2 -18 3 -15 6 4 19 0 29 -8 12 -9 13 -13 4 -10 -11 4 -16 -3 -16 -26
-1 -17 1 -27 5 -21 4 7 12 8 20 2 8 -4 21 -6 29 -2 10 4 13 1 8 -7 -5 -7 -14
-10 -21 -7 -11 4 -13 -14 -4 -34 4 -10 7 -26 8 -53 0 -16 5 -26 9 -23 4 2 14
1 22 -5 12 -7 11 -9 -5 -10 -20 0 -20 -1 -1 -8 19 -7 19 -8 -2 -13 -12 -4 -20
-2 -17 2 7 12 -26 29 -44 22 -9 -3 -11 0 -6 8 6 9 4 11 -5 5 -10 -6 -10 -10 2
-19 8 -6 13 -18 10 -26 -4 -13 -3 -13 11 -2 13 11 15 10 10 -10 -4 -13 -11
-27 -17 -31 -6 -5 -1 -5 12 -2 16 5 22 2 22 -10 0 -11 -5 -15 -14 -12 -9 4
-17 -1 -19 -11 -4 -16 -5 -15 -6 1 -2 28 -19 19 -19 -10 1 -49 8 -74 20 -67 8
5 9 1 5 -11 -4 -9 -2 -25 5 -34 11 -14 11 -14 -4 -3 -12 9 -18 10 -23 2 -4 -6
-13 -9 -20 -6 -7 2 -21 -2 -32 -9 -14 -12 -15 -15 -3 -16 8 -1 20 -1 27 0 6 1
14 -3 18 -9 6 -9 -16 -15 -40 -10 -5 1 -7 -2 -3 -6 4 -4 2 -14 -5 -22 -10 -13
-8 -14 13 -7 25 7 25 7 5 -10 -20 -16 -20 -16 3 -12 12 3 22 1 22 -4 0 -5 -4
-9 -8 -9 -5 0 -9 -7 -9 -15 0 -8 7 -15 14 -15 8 0 11 5 7 13 -5 9 -3 9 7 -1
12 -11 12 -14 -1 -22 -8 -5 -18 -6 -22 -4 -4 3 -5 -2 -2 -10 4 -11 -1 -14 -22
-11 l-28 3 22 -19 c13 -10 28 -17 35 -15 7 1 9 1 4 -1 -4 -3 -4 -10 -1 -15 4
-6 2 -8 -4 -4 -6 3 -13 2 -17 -4 -3 -5 -2 -10 3 -10 5 0 9 -6 9 -13 0 -18 -36
-15 -48 4 -5 8 -9 9 -9 3 0 -6 7 -17 15 -24 18 -15 21 -45 3 -34 -7 5 -8 3 -3
-6 6 -10 4 -12 -10 -6 -15 5 -16 4 -6 -8 11 -13 8 -14 -14 -10 -25 4 -26 3
-12 -11 9 -8 23 -15 31 -15 9 0 16 -7 16 -16 0 -8 -4 -13 -9 -10 -5 3 -15 -2
-22 -11 -10 -12 -10 -14 -1 -9 7 4 12 2 12 -5 0 -6 -8 -9 -19 -6 -14 3 -18 1
-14 -9 3 -8 13 -14 23 -14 11 0 22 -5 26 -12 4 -7 3 -8 -4 -4 -8 5 -12 -2 -12
-20 0 -21 3 -24 13 -15 11 8 13 5 9 -19 -3 -23 0 -30 12 -30 10 0 14 -5 11
-11 -4 -6 -13 -8 -19 -6 -7 3 -13 -1 -13 -9 0 -7 4 -11 9 -8 4 3 9 -1 9 -8 1
-7 2 -20 3 -28 0 -8 -6 -22 -14 -30 -9 -8 -11 -12 -6 -7 23 17 37 6 15 -12
-22 -18 -22 -20 -6 -26 14 -6 15 -10 6 -21 -8 -10 -8 -14 0 -14 6 0 11 -6 11
-14 0 -8 3 -16 8 -19 4 -2 1 -2 -5 -1 -7 2 -13 -5 -13 -16 0 -12 5 -17 13 -14
8 3 20 -3 28 -12 12 -16 12 -17 -3 -11 -13 4 -15 2 -11 -10 3 -8 0 -19 -8 -24
-10 -6 -11 -9 -1 -9 18 0 35 -49 22 -65 -8 -10 -8 -15 1 -21 8 -4 9 -3 5 4 -4
7 -2 12 3 12 15 0 14 -12 -4 -37 -14 -20 -14 -22 5 -28 11 -4 18 -11 14 -16
-3 -5 -10 -6 -16 -3 -7 4 -8 2 -4 -5 4 -6 15 -10 24 -9 12 2 16 -3 15 -19 -2
-13 3 -23 10 -23 22 0 17 -40 -6 -50 -20 -8 -9 -15 15 -11 4 0 7 -10 6 -24 -1
-14 -8 -25 -15 -25 -16 0 -26 -16 -10 -18 26 -2 47 -9 54 -17 5 -4 2 -5 -6 0
-11 6 -13 4 -8 -8 4 -12 1 -15 -14 -12 -11 2 -17 0 -14 -6 4 -5 12 -9 19 -9 7
0 13 -7 13 -15 0 -9 -6 -14 -12 -11 -9 3 -10 -5 -5 -30 7 -31 6 -33 -8 -22
-12 10 -14 10 -8 0 4 -7 2 -12 -6 -13 -7 0 -4 -4 7 -8 12 -5 26 -4 34 3 12 9
12 8 2 -11 -6 -13 -17 -23 -22 -23 -6 0 -8 -7 -5 -16 5 -14 4 -15 -8 -5 -11 9
-16 9 -22 0 -4 -8 -3 -9 4 -5 8 5 12 0 12 -13 0 -18 3 -19 28 -11 23 9 25 8
10 -3 -9 -7 -18 -22 -20 -32 -1 -11 -10 -23 -18 -27 -9 -5 -3 -7 15 -5 26 2
30 -1 27 -20 -3 -18 2 -23 18 -23 12 0 18 -4 15 -10 -4 -6 -10 -8 -14 -6 -4 3
-5 -8 -3 -24 2 -17 7 -28 11 -25 15 9 7 -30 -8 -42 -13 -9 -10 -10 14 -6 25 3
27 2 13 -7 -10 -6 -18 -15 -18 -20 0 -6 8 -10 18 -11 11 0 12 -2 4 -6 -7 -3
-19 0 -26 6 -9 8 -13 7 -13 -4 0 -8 3 -12 7 -10 3 2 15 -6 25 -18 20 -23 25
-84 7 -80 -6 2 -9 -4 -6 -12 7 -17 24 -20 24 -5 0 6 6 5 14 -2 12 -11 12 -14
0 -21 -23 -13 -16 -24 14 -21 24 2 25 1 9 -10 -23 -17 -22 -36 2 -36 28 0 33
-14 10 -30 -10 -8 -19 -20 -19 -28 0 -7 -4 -11 -9 -7 -5 3 -13 1 -16 -5 -4 -6
-3 -10 2 -9 4 1 11 0 16 -1 4 -1 13 -3 20 -4 6 -1 11 -8 9 -15 -1 -7 2 -9 8
-6 6 4 9 13 6 21 -3 7 0 16 7 20 7 4 9 4 5 -1 -4 -4 -3 -16 3 -26 7 -15 6 -21
-6 -25 -8 -3 -15 -11 -15 -16 0 -6 7 -8 15 -4 9 3 15 0 15 -9 0 -9 6 -12 15
-9 8 4 13 10 10 14 -3 5 0 12 6 16 8 4 9 3 5 -4 -9 -15 28 -16 55 -2 10 6 19
7 19 2 0 -5 -25 -16 -55 -26 -79 -25 -78 -38 2 -16 51 14 63 15 49 4 -11 -8
-26 -14 -33 -14 -7 0 -13 -4 -13 -10 0 -5 -3 -9 -7 -9 -20 3 -31 -2 -37 -17
-3 -9 -2 -12 5 -9 6 4 19 -1 29 -10 15 -13 17 -22 10 -36 -7 -12 -6 -20 2 -25
7 -4 8 -3 4 4 -4 7 -1 12 9 12 9 0 13 5 9 11 -4 8 0 7 15 -1 22 -11 20 -30 -2
-30 -7 0 -6 4 3 11 13 9 13 10 0 6 -8 -2 -14 -10 -12 -17 2 -7 -3 -17 -10 -21
-11 -7 -11 -9 0 -9 7 0 10 -5 6 -12 -5 -7 -3 -8 7 -2 8 4 24 9 36 10 18 1 20
-2 12 -18 -12 -23 -6 -23 17 -1 17 17 17 17 11 1 -3 -10 -2 -20 3 -23 6 -4 10
-11 10 -18 0 -6 -6 -3 -13 8 -10 13 -16 15 -21 6 -5 -7 -5 -15 -2 -18 3 -3 1
-12 -6 -20 -8 -11 -7 -12 6 -7 9 3 16 10 16 14 0 9 33 6 51 -5 19 -12 -11 -36
-31 -25 -25 13 -40 12 -17 -1 9 -6 15 -14 13 -18 -3 -4 1 -8 9 -8 8 0 15 4 15
8 0 4 9 11 20 14 11 4 18 11 15 16 -3 5 0 6 8 3 8 -3 21 2 30 10 18 19 31 21
21 4 -5 -8 -1 -9 12 -5 18 7 18 6 2 -6 -10 -8 -15 -17 -11 -20 3 -4 1 -7 -5
-7 -7 0 -12 5 -12 10 0 6 -4 10 -9 10 -6 0 -9 -9 -8 -20 1 -14 6 -19 17 -15
11 4 10 1 -3 -9 -9 -7 -28 -12 -42 -10 -14 1 -23 -2 -19 -7 3 -5 10 -6 16 -3
6 4 9 1 6 -7 -3 -8 -13 -13 -23 -11 -12 2 -16 -1 -12 -11 3 -8 0 -21 -6 -28
-10 -11 -9 -11 5 0 10 7 15 18 11 25 -4 7 -1 6 7 -1 11 -10 10 -16 -5 -33 -10
-11 -15 -23 -12 -27 4 -3 7 -1 7 6 0 7 5 9 12 5 6 -4 8 -3 5 3 -7 10 20 28 36
25 10 -3 9 16 -2 22 -5 4 -11 1 -13 -6 -3 -7 -7 -8 -10 -3 -3 6 6 19 21 30 20
15 23 15 12 2 -12 -15 -11 -17 4 -17 10 0 23 7 30 17 9 13 14 13 20 3 6 -9 4
-11 -5 -5 -10 6 -12 4 -7 -8 3 -9 3 -16 -1 -14 -11 3 -54 -43 -56 -62 -2 -9
-8 -16 -14 -16 -20 0 -35 -22 -22 -30 7 -4 16 -2 20 5 5 8 9 8 13 -4 4 -9 3
-15 -1 -14 -16 3 -40 -15 -36 -27 4 -9 -4 -12 -25 -10 -22 2 -28 -1 -24 -12 3
-8 9 -11 12 -6 11 15 34 14 28 -2 -4 -8 -2 -15 3 -15 6 0 10 5 10 11 0 5 5 7
11 3 6 -3 -2 -14 -20 -25 -35 -21 -37 -25 -15 -33 10 -4 13 -2 8 7 -5 7 0 5
11 -3 18 -15 18 -15 -1 -19 -10 -1 -27 -10 -38 -20 -10 -9 -21 -15 -24 -13 -4
2 -8 -1 -10 -7 -2 -6 1 -11 8 -11 6 0 8 6 5 12 -4 7 1 4 9 -6 20 -25 21 -46 2
-46 -25 0 -26 -16 -2 -18 17 -1 35 12 62 43 21 25 42 45 47 45 10 0 -64 -92
-111 -137 -23 -22 -28 -30 -15 -28 10 1 24 -2 31 -8 9 -7 11 -5 6 8 -5 13 -4
16 5 11 14 -9 9 -30 -7 -32 -7 -1 -16 -2 -21 -3 -10 -1 -9 -20 2 -37 4 -7 1
-14 -7 -17 -9 -4 -13 -18 -10 -43 2 -27 -2 -40 -17 -53 l-21 -17 22 -1 c12 -1
24 6 27 15 4 9 12 21 20 25 7 4 22 25 33 45 10 20 31 51 45 67 l27 30 -21 -31
c-11 -17 -18 -34 -14 -38 3 -3 1 -6 -5 -6 -7 0 -11 -3 -11 -7 3 -13 -25 -73
-33 -73 -4 0 -8 -7 -8 -16 0 -8 -7 -22 -15 -30 -8 -9 -15 -24 -15 -35 0 -10
-4 -19 -10 -19 -5 0 -10 -5 -10 -11 0 -7 9 -5 24 5 19 12 27 13 32 3 4 -6 4
-9 -1 -5 -4 4 -14 1 -21 -7 -8 -7 -19 -15 -26 -18 -9 -3 -10 -8 -2 -16 13 -14
47 -3 37 12 -3 6 -1 7 6 3 9 -6 9 -11 1 -21 -7 -8 -8 -20 -4 -27 6 -10 5 -10
-7 -1 -11 9 -18 8 -32 -2 -16 -12 -16 -13 0 -26 15 -12 16 -12 9 1 -4 8 -1 6
8 -4 8 -10 13 -23 9 -29 -3 -6 -1 -7 5 -3 6 4 9 13 5 21 -3 8 -1 15 5 15 11 0
11 -18 -1 -37 -5 -7 -5 -13 -1 -13 4 0 -2 -10 -14 -23 -17 -18 -19 -24 -7 -24
8 0 15 3 15 7 0 4 7 7 15 7 11 0 12 -4 5 -11 -16 -16 -12 -26 7 -20 14 4 15 3
5 -4 -11 -7 -7 -14 15 -31 17 -13 21 -18 9 -14 -13 4 -17 3 -12 -5 10 -16 -6
-15 -24 1 -8 6 -6 2 4 -10 16 -19 22 -21 35 -10 14 11 14 10 2 -5 -7 -10 -17
-16 -21 -13 -5 3 -12 0 -16 -6 -4 -8 -3 -9 4 -5 7 4 12 2 12 -3 0 -6 9 -11 21
-11 11 0 17 5 14 10 -3 6 -1 10 5 10 6 0 9 4 6 8 -3 5 6 26 19 48 24 39 35 41
14 2 -6 -11 -15 -34 -19 -49 l-9 -29 2920 0 2919 0 0 370 c-1 262 -4 371 -12
376 -7 5 -9 2 -5 -9 3 -9 1 -19 -5 -23 -7 -4 -8 -3 -4 4 4 7 2 12 -5 12 -7 0
-5 9 6 26 9 15 12 23 6 20 -6 -4 -11 0 -11 9 0 9 -4 14 -9 11 -5 -3 -12 1 -15
10 -5 12 -2 15 9 10 10 -3 13 -2 10 5 -4 6 -13 8 -21 5 -8 -3 -14 -1 -14 4 0
6 5 10 12 10 6 0 8 3 5 7 -4 3 -15 -1 -25 -10 -20 -18 -32 -13 -31 12 0 12 3
11 10 -4 l9 -20 -3 20 c-2 15 -10 20 -34 21 -40 0 -50 9 -34 28 11 13 9 15 -8
11 -12 -2 -21 1 -21 8 0 7 -5 4 -11 -6 -5 -9 -15 -17 -22 -17 -7 0 -6 4 3 10
13 9 13 10 0 11 -8 1 -18 1 -23 0 -4 0 -6 2 -6 6 1 5 1 15 0 23 -1 13 -3 13
-10 1 -7 -10 -9 -7 -8 12 2 28 12 36 19 15 3 -8 6 -7 10 4 5 11 0 15 -20 14
-17 0 -26 4 -24 13 1 7 -2 9 -8 6 -8 -5 -6 -13 5 -25 11 -12 13 -20 5 -25 -6
-3 -9 -3 -8 2 3 10 -24 53 -34 53 -4 0 -6 -6 -4 -12 1 -7 1 -10 -1 -5 -3 4
-10 4 -15 1 -6 -4 -8 -2 -5 3 4 6 -3 19 -14 29 -12 10 -25 28 -30 39 -10 20
-10 20 5 1 16 -19 16 -19 16 3 0 12 4 19 10 16 6 -3 7 1 4 10 -4 9 -3 15 2 13
5 -2 10 1 12 6 1 6 -4 11 -13 12 -8 1 -13 -2 -9 -7 8 -14 -20 -11 -35 4 -11
10 -13 9 -8 -6 4 -11 3 -16 -3 -12 -6 3 -10 1 -10 -5 0 -7 -7 -5 -16 4 -8 9
-19 14 -24 11 -4 -3 -11 2 -14 11 -9 24 -7 28 7 15 10 -8 14 -7 14 4 0 8 -5
11 -10 8 -6 -4 -8 0 -5 8 4 11 -7 14 -56 14 -34 0 -61 4 -61 10 0 6 -4 17 -9
25 -5 8 2 5 16 -8 18 -16 25 -18 25 -8 0 8 -4 13 -8 11 -3 -3 -12 2 -19 11 -7
8 -19 13 -26 10 -7 -3 -16 -1 -19 5 -4 5 -10 7 -14 5 -4 -3 -7 9 -6 27 2 24
-2 33 -14 34 -9 0 -26 3 -38 6 -14 4 -23 1 -23 -5 0 -6 -3 -9 -6 -6 -3 4 -1
15 5 26 13 25 4 34 -23 20 -19 -10 -18 -8 4 17 l25 28 -27 -18 c-18 -11 -28
-13 -28 -6 0 7 -6 9 -12 5 -7 -4 -3 4 10 18 12 13 22 27 22 31 0 3 -16 14 -36
23 -30 14 -37 15 -44 3 -7 -10 -9 -8 -7 8 0 12 6 19 12 17 5 -3 1 2 -9 10 -11
9 -23 16 -28 16 -4 0 -8 4 -8 9 0 9 45 5 62 -5 4 -3 8 0 8 5 0 6 -6 11 -14 11
-8 0 -20 13 -27 29 -7 16 -17 27 -21 25 -4 -3 -8 0 -8 6 0 7 -7 9 -16 6 -8 -3
-13 -2 -9 3 3 5 -1 12 -7 14 -7 3 4 4 25 2 21 -2 35 0 32 4 -4 3 -10 6 -13 6
-4 1 -18 5 -31 9 -18 6 -20 10 -10 17 8 4 19 3 26 -3 11 -8 12 -7 6 8 -6 17
-5 18 13 4 17 -14 18 -14 6 2 -10 13 -11 22 -2 37 9 19 7 23 -25 38 -33 16
-34 18 -20 39 16 25 9 39 -12 22 -11 -8 -12 -7 -7 6 3 9 0 24 -7 33 -8 9 -9
14 -3 10 6 -4 19 2 28 12 13 14 14 21 5 27 -8 4 -10 3 -5 -5 9 -14 -38 -11
-51 4 -4 4 -2 5 5 1 8 -5 12 0 12 14 0 12 5 18 10 15 6 -3 10 -2 10 3 0 6 -7
13 -16 16 -8 3 -12 2 -9 -3 3 -5 1 -12 -4 -15 -11 -7 -9 13 3 32 9 14 -10 42
-28 42 -6 0 -17 9 -23 19 -11 17 -10 19 7 16 11 -2 25 -7 32 -11 6 -4 3 4 -8
18 -10 14 -22 24 -26 21 -5 -2 -8 0 -8 6 0 6 -7 8 -15 5 -8 -3 -22 1 -30 10
-9 9 -13 16 -8 16 5 0 14 -5 20 -11 7 -7 12 -6 16 5 7 17 -30 59 -45 50 -4 -3
-8 0 -8 6 0 6 -4 8 -10 5 -5 -3 -18 -1 -29 4 -12 7 -21 7 -23 1 -2 -5 -8 2
-15 16 -10 22 -10 24 4 13 12 -11 17 -10 25 4 5 10 15 14 21 11 7 -4 6 -1 -2
7 -10 11 -15 11 -18 2 -3 -7 -9 -13 -15 -13 -6 0 -8 7 -5 14 4 10 1 13 -7 10
-8 -3 -17 -1 -21 5 -3 6 0 9 8 5 7 -2 14 1 14 8 0 7 2 19 4 27 2 8 -7 20 -21
28 l-25 13 28 0 c15 0 27 5 27 11 0 5 5 7 12 3 7 -4 8 -3 4 5 -6 9 -11 9 -22
0 -12 -9 -13 -9 -9 3 4 9 -3 19 -17 26 -13 6 -17 11 -10 11 7 1 10 6 6 12 -4
8 0 8 15 0 17 -10 20 -9 15 4 -4 8 -15 15 -25 15 -10 0 -19 5 -19 11 0 5 -4 8
-8 5 -5 -3 -9 1 -9 9 0 10 6 11 24 4 16 -6 22 -5 18 1 -3 6 -2 10 4 10 6 0 8
7 5 15 -5 11 -2 13 11 9 16 -6 16 -5 -1 14 -10 12 -24 22 -30 22 -6 0 -14 11
-16 25 -3 13 -2 23 1 20 4 -2 13 0 20 5 15 9 6 30 -12 30 -7 0 -6 -4 3 -10 8
-5 10 -10 4 -10 -6 0 -17 7 -24 15 -10 12 -10 18 0 30 7 9 19 14 26 11 7 -3
16 0 20 6 5 7 2 8 -6 3 -10 -6 -12 -4 -7 7 3 10 0 15 -11 14 -10 0 -17 6 -17
16 0 9 -4 20 -9 25 -5 4 -6 3 -2 -4 9 -16 1 -16 -25 -3 -10 6 -19 18 -19 27 0
13 2 14 17 2 11 -10 14 -10 9 -1 -6 11 5 17 27 13 4 0 7 6 7 15 0 11 -6 14
-20 9 -11 -4 -20 -2 -20 4 0 6 7 12 15 12 28 3 33 4 41 12 4 4 0 7 -10 7 -25
0 -47 25 -34 38 6 6 6 12 -3 17 -7 5 -10 4 -5 -3 3 -5 0 -9 -6 -8 -7 1 -13 6
-13 11 0 6 3 9 8 8 4 -2 7 2 7 8 0 8 5 7 15 -1 13 -11 14 -10 9 5 -5 12 -4 16
4 11 6 -3 13 -2 17 4 3 5 -3 10 -14 10 -11 0 -23 5 -26 10 -3 6 -1 10 4 10 6
0 11 10 11 23 0 13 3 17 8 11 5 -9 11 -8 21 3 11 12 11 14 -2 11 -8 -2 -23 8
-34 21 -15 19 -22 21 -28 11 -6 -9 -4 -11 5 -5 9 6 11 4 5 -5 -6 -9 -4 -11 6
-5 12 7 12 5 1 -6 -11 -12 -14 -12 -21 0 -5 8 -7 21 -3 29 4 11 1 13 -8 7 -9
-5 -11 -4 -6 4 4 6 12 8 18 5 8 -5 9 -1 5 10 -6 14 -3 16 16 11 20 -5 20 -5
-3 9 -14 8 -28 12 -32 10 -3 -2 -10 1 -14 7 -5 8 -3 9 6 4 10 -6 11 -1 6 21
-7 28 -7 28 8 9 10 -14 14 -15 13 -5 -3 22 -33 61 -40 53 -4 -3 -7 -4 -7 -1 0
3 8 12 17 19 9 8 14 9 11 4 -9 -15 7 -38 26 -41 9 -1 14 2 10 7 -3 5 -10 7
-15 4 -9 -6 -10 -3 -13 33 -2 26 -16 43 -29 36 -8 -5 -8 -3 1 7 17 19 15 39
-5 40 -15 0 -15 2 2 9 11 5 15 9 9 9 -7 1 -15 8 -18 17 -4 12 -2 15 9 10 8 -3
15 -1 15 4 0 6 -6 10 -12 10 -9 0 -8 4 2 10 13 8 12 10 -2 10 -13 0 -17 6 -14
23 2 12 -2 28 -8 36 -9 12 -8 12 11 0 16 -10 19 -16 10 -22 -9 -6 -8 -8 2 -5
8 2 15 15 17 29 1 13 0 18 -3 11 -4 -10 -8 -10 -19 -1 -15 13 -20 44 -5 34 5
-3 13 0 17 6 4 8 3 9 -4 5 -7 -4 -12 -1 -12 9 0 10 5 13 12 9 6 -4 8 -3 5 4
-4 5 -17 8 -30 6 -12 -2 -16 -2 -9 2 6 3 10 10 7 15 -4 5 0 6 8 3 21 -8 30 11
12 26 -8 7 -12 16 -9 21 3 5 2 9 -3 8 -26 -4 -42 2 -37 16 4 8 10 13 14 10 4
-3 10 7 13 21 3 18 -2 32 -17 45 -13 13 -15 18 -5 14 10 -4 16 0 16 9 0 8 -4
13 -8 11 -4 -3 -10 2 -13 11 -5 14 -9 14 -24 3 -15 -13 -16 -12 -3 4 9 11 10
17 2 17 -6 0 -11 5 -11 10 0 6 12 3 28 -7 l27 -17 -19 22 c-20 23 -20 23 9 47
21 18 24 25 12 25 -10 0 -17 -4 -17 -10 0 -5 -4 -10 -8 -10 -11 0 -10 51 1 68
5 7 5 11 0 10 -19 -5 -52 23 -48 42 2 11 -1 23 -7 26 -7 5 -8 2 -3 -6 5 -9 4
-11 -4 -6 -7 4 -9 17 -6 29 5 16 4 18 -3 8 -8 -10 -14 -11 -28 -1 -14 8 -15
10 -3 7 13 -4 15 -1 12 14 -4 13 3 28 16 41 12 11 20 22 17 25 -3 3 -12 -2
-21 -11 -9 -9 -21 -16 -26 -16 -13 0 -11 17 3 26 7 5 8 3 3 -6 -6 -9 -4 -11 4
-6 9 6 9 12 -3 24 -8 10 -15 22 -16 27 -1 6 -3 12 -5 13 -6 7 1 -23 8 -35 5
-9 2 -13 -8 -13 -9 0 -14 4 -10 9 3 5 -2 17 -11 26 -14 13 -14 19 -4 28 10 9
11 9 6 0 -5 -9 -2 -11 9 -7 14 6 13 8 -4 21 -11 7 -28 24 -37 36 -10 14 -14
16 -11 5 3 -9 -1 -22 -11 -29 -14 -11 -15 -11 -5 0 6 7 9 20 6 28 -3 8 0 19 8
24 10 6 11 9 2 10 -28 3 -32 4 -40 13 -4 5 -3 7 3 3 16 -9 43 27 30 39 -7 6
-17 9 -23 7 -16 -6 -26 14 -12 23 8 5 9 3 4 -7 -5 -8 -4 -10 0 -6 5 4 10 14
11 23 2 13 -1 13 -22 -1 l-25 -16 18 28 c15 24 16 26 1 15 -15 -12 -17 -11
-16 10 1 13 6 29 11 36 6 7 7 15 3 19 -3 3 -6 1 -6 -6 0 -22 -28 13 -32 40 -2
17 1 23 12 21 10 -3 7 5 -8 21 -17 18 -20 26 -10 30 7 3 -4 4 -24 2 -21 -2
-40 0 -43 5 -3 6 0 8 7 5 15 -6 17 50 3 63 -5 4 -5 1 -1 -5 4 -7 2 -13 -3 -13
-6 0 -11 7 -11 15 0 8 -4 15 -9 15 -5 0 -8 -8 -7 -17 0 -10 -7 -18 -19 -20
-15 -1 -16 -1 -2 3 9 3 17 10 17 15 0 6 -6 7 -12 3 -9 -5 -9 -2 1 9 7 9 10 17
5 17 -5 0 -2 5 6 10 12 8 10 10 -10 10 -20 0 -22 2 -10 10 13 8 12 10 -2 10
-10 0 -18 6 -18 14 0 8 -7 17 -16 20 -14 5 -15 4 -4 -9 11 -13 10 -14 -4 -9
-14 5 -21 24 -17 47 1 5 -3 6 -9 2 -6 -3 -8 -11 -5 -16 10 -15 -2 -10 -16 8
-10 11 -10 14 -1 9 7 -4 12 -2 12 5 0 6 -8 9 -18 7 -11 -3 -19 0 -19 7 0 7 6
11 13 8 6 -2 15 1 20 8 4 7 3 10 -3 6 -6 -4 -19 0 -29 8 -16 12 -17 17 -7 34
9 15 10 22 1 27 -7 4 -8 3 -4 -4 10 -17 -19 -15 -33 2 -8 10 -8 16 2 25 8 6
18 7 22 3 5 -4 5 -1 1 6 -4 7 -12 10 -17 6 -5 -3 -16 0 -25 6 -11 10 -12 16
-3 26 9 11 8 14 -1 14 -9 0 -9 4 1 17 12 14 12 16 0 8 -11 -6 -13 -4 -8 8 3 9
1 19 -5 23 -7 5 -8 2 -3 -6 6 -9 4 -11 -4 -6 -7 5 -10 15 -7 23 4 11 2 13 -9
10 -8 -4 -17 -1 -21 5 -4 7 -3 8 4 4 14 -9 15 4 2 24 -8 12 -10 12 -10 1 0 -8
-3 -11 -7 -8 -3 4 2 16 11 26 17 19 17 19 -6 14 -21 -6 -22 -5 -9 10 16 20 2
23 -19 5 -12 -11 -12 -10 -3 2 14 20 13 52 -2 46 -6 -2 -12 2 -12 9 0 7 7 11
16 8 9 -2 5 2 -8 10 -15 9 -20 17 -12 21 6 4 11 13 11 19 0 7 -4 6 -10 -3 -6
-10 -10 -11 -10 -2 0 6 -7 12 -15 12 -9 0 -14 8 -12 23 1 14 -3 21 -11 19 -8
-1 -11 2 -8 7 3 5 17 8 30 7 21 -3 24 0 19 23 -2 14 -11 30 -19 34 -8 5 -12
12 -9 18 9 13 -9 11 -24 -3 -11 -11 -11 -9 -2 10 6 12 16 22 21 22 5 0 8 9 7
19 -1 15 -4 17 -14 9 -7 -5 -10 -14 -7 -19 3 -5 1 -9 -4 -9 -6 0 -13 7 -16 16
-3 8 -2 13 3 10 5 -3 11 1 14 8 4 11 0 14 -16 11 -21 -4 -21 -4 -3 10 15 11
16 15 5 16 -8 0 -6 4 6 9 l20 9 -20 1 c-11 1 -29 2 -40 1 -11 -1 -27 3 -35 9
-13 9 -11 14 10 33 42 36 53 54 39 63 -7 4 -9 3 -6 -3 4 -6 -2 -13 -14 -16
-16 -4 -18 -3 -9 8 7 8 7 15 1 19 -5 3 -11 0 -14 -6 -3 -8 -7 -6 -12 7 -5 11
-17 30 -27 41 -19 21 -19 21 1 20 11 0 21 4 21 9 0 6 -10 10 -22 10 -13 0 -23
6 -23 13 0 7 -7 17 -15 22 -8 5 -10 10 -4 10 16 0 35 -25 26 -35 -4 -5 -1 -5
5 -1 10 5 9 12 -3 31 -20 31 -24 58 -10 68 7 6 4 7 -7 3 -12 -4 -17 -2 -14 6
2 7 10 12 16 10 7 -1 10 2 6 7 -3 6 -13 7 -22 4 -11 -4 -14 -3 -9 5 4 7 2 10
-6 7 -29 -11 -60 40 -34 57 7 5 4 8 -7 8 -11 0 -17 5 -14 13 2 6 10 11 16 9 7
-1 10 2 6 8 -3 6 -11 7 -17 4 -7 -5 -9 -2 -5 8 3 10 0 15 -10 14 -9 0 -17 7
-18 17 -2 9 2 17 8 17 5 0 7 3 4 6 -4 4 -13 1 -21 -5 -11 -9 -16 -9 -22 1 -4
7 -4 10 0 6 5 -4 14 -2 21 5 9 9 9 14 -2 25 -8 8 -17 11 -21 8 -3 -4 0 -11 8
-16 8 -6 11 -10 5 -10 -5 0 -26 19 -45 42 -19 23 -29 39 -23 35 6 -4 14 0 17
9 3 8 2 12 -4 9 -5 -3 -18 -1 -27 5 -16 10 -16 11 2 6 20 -6 20 -6 1 9 -11 8
-20 27 -21 42 -3 39 -8 57 -20 65 -6 5 -5 8 4 8 11 0 11 3 1 15 -7 8 -9 15 -6
15 4 0 2 10 -5 21 -6 12 -7 19 -2 16 5 -3 9 3 9 13 0 10 -5 16 -10 13 -5 -4
-7 1 -3 10 4 10 1 17 -6 17 -8 0 -6 4 3 10 9 6 11 10 3 10 -7 0 -10 7 -7 15 4
9 -2 23 -13 33 -11 9 -19 25 -17 35 1 9 -2 17 -8 17 -6 0 -8 6 -5 14 3 7 0 19
-6 26 -9 10 -9 11 1 6 8 -5 12 0 12 13 0 12 -4 21 -9 21 -6 0 -10 15 -11 33
-1 61 -5 97 -10 97 -3 0 -6 9 -6 20 0 11 4 20 8 20 5 0 4 9 -2 20 -6 11 -8 20
-4 20 3 0 1 7 -6 15 -10 12 -10 15 0 15 10 0 10 3 0 15 -6 8 -9 19 -5 25 3 5
3 10 -2 10 -4 0 -9 23 -11 52 -1 28 -8 58 -15 67 -10 12 -9 13 1 7 10 -6 9 0
-2 23 -9 17 -14 31 -12 31 3 0 -1 15 -9 34 -8 18 -11 36 -8 40 4 3 2 6 -3 6
-5 0 -11 8 -12 18 -4 41 -9 54 -23 63 -11 7 -11 9 -1 9 7 0 10 5 7 10 -4 6
-10 8 -15 5 -4 -3 -6 3 -3 14 3 10 0 22 -7 26 -8 5 -8 11 1 21 10 12 10 14 -1
12 -11 -3 -15 9 -22 60 -1 6 -5 12 -10 12 -5 0 -6 5 -3 10 3 6 1 10 -5 10 -7
0 -10 6 -7 14 3 8 -1 20 -8 26 -8 7 -12 16 -9 21 3 5 0 9 -5 9 -6 0 -11 8 -11
18 0 10 -9 28 -20 40 -11 12 -20 25 -20 30 0 5 -7 15 -15 22 -9 7 -14 19 -11
27 3 7 1 13 -4 13 -5 0 -12 11 -16 25 -3 14 -14 25 -23 26 -12 0 -12 2 4 9 17
7 17 9 3 9 -10 1 -18 6 -18 12 0 5 -4 8 -9 4 -6 -3 -8 4 -6 15 2 11 0 18 -4
16 -10 -7 -41 30 -33 40 4 4 2 4 -4 1 -7 -4 -19 4 -28 18 -9 14 -23 25 -31 25
-8 0 -14 4 -12 8 3 11 -68 82 -82 82 -6 0 -11 3 -11 8 0 4 -13 14 -29 23 -20
12 -33 14 -46 6 -13 -7 -16 -6 -11 2 10 15 -63 12 -83 -3 -11 -8 -13 -8 -7 2
12 21 -1 13 -18 -10z m-361 -568 c-3 -5 -12 -10 -18 -10 -7 0 -6 4 3 10 19 12
23 12 15 0z m-384 -1273 c-10 -9 -11 -8 -5 6 3 10 9 15 12 12 3 -3 0 -11 -7
-18z m4 -27 c4 -6 1 -9 -7 -8 -7 2 -12 -3 -10 -10 1 -8 -2 -11 -8 -7 -8 5 -7
11 1 21 14 17 16 17 24 4z m-114 -157 c-12 -20 -14 -14 -5 12 4 9 9 14 11 11
3 -2 0 -13 -6 -23z m-141 -73 c-8 -4 -19 -8 -24 -8 -5 0 -12 -6 -16 -12 -5 -8
-9 -7 -13 3 -4 11 0 15 13 12 10 -2 24 3 31 11 6 8 15 12 18 8 3 -3 -1 -9 -9
-14z m2041 -23 c-10 -9 -11 -8 -5 6 3 10 9 15 12 12 3 -3 0 -11 -7 -18z
m-5001 -81 c0 -2 -8 -10 -17 -17 -16 -13 -17 -12 -4 4 13 16 21 21 21 13z
m105 -6 c3 -5 1 -10 -4 -10 -6 0 -11 5 -11 10 0 6 2 10 4 10 3 0 8 -4 11 -10z
m2645 0 c0 -5 -2 -10 -4 -10 -3 0 -8 5 -11 10 -3 6 -1 10 4 10 6 0 11 -4 11
-10z m-2670 -14 c0 -2 -8 -10 -17 -17 -16 -13 -17 -12 -4 4 13 16 21 21 21 13z
m200 -20 c0 -2 -8 -10 -17 -17 -16 -13 -17 -12 -4 4 13 16 21 21 21 13z m30
-16 c0 -5 -2 -10 -4 -10 -3 0 -8 5 -11 10 -3 6 -1 10 4 10 6 0 11 -4 11 -10z
m2351 -27 c7 -10 9 -15 5 -11 -5 4 -16 2 -25 -5 -14 -10 -14 -10 -4 4 7 9 10
19 6 22 -3 4 -4 7 -1 7 3 0 12 -8 19 -17z m-38 -48 c4 -8 3 -16 -1 -19 -4 -3
-9 4 -9 15 -2 23 3 25 10 4z m-2075 -40 c-3 -3 -9 2 -12 12 -6 14 -5 15 5 6 7
-7 10 -15 7 -18z m151 -68 c0 -9 -2 -8 -6 1 -2 6 -10 9 -15 6 -7 -4 -8 -2 -4
5 9 13 26 5 25 -12z m146 -56 c3 -5 2 -12 -3 -15 -5 -3 -9 1 -9 9 0 17 3 19
12 6z m135 -45 c0 -2 -7 -7 -16 -10 -8 -3 -12 -2 -9 4 6 10 25 14 25 6z m90
-65 c0 -6 -4 -12 -8 -15 -5 -3 -9 1 -9 9 0 8 4 15 9 15 4 0 8 -4 8 -9z m770
-35 c0 -2 -8 -10 -17 -17 -16 -13 -17 -12 -4 4 13 16 21 21 21 13z m70 -4 c0
-5 -7 -9 -15 -9 -8 0 -12 4 -9 9 3 4 9 8 15 8 5 0 9 -4 9 -8z m70 2 c0 -8 -19
-13 -24 -6 -3 5 1 9 9 9 8 0 15 -2 15 -3z m-353 -37 c0 -8 -6 -14 -14 -14 -14
0 -17 10 -6 20 10 11 20 8 20 -6z m-1277 -191 c0 -2 -7 -7 -16 -10 -8 -3 -12
-2 -9 4 6 10 25 14 25 6z m83 -103 c3 -5 -6 -9 -20 -10 -19 -1 -22 1 -12 8 17
11 26 11 32 2z m157 -48 c0 -2 -6 -8 -13 -14 -10 -8 -14 -7 -14 2 0 8 6 14 14
14 7 0 13 -1 13 -2z m-60 -89 c0 -2 -7 -7 -16 -10 -8 -3 -12 -2 -9 4 6 10 25
14 25 6z m137 -61 c0 -8 -4 -12 -9 -9 -5 3 -6 10 -3 15 9 13 12 11 12 -6z
m4843 -55 c0 -5 -2 -10 -4 -10 -3 0 -8 5 -11 10 -3 6 -1 10 4 10 6 0 11 -4 11
-10z m136 -168 c-6 -5 -36 23 -36 34 0 4 9 -1 20 -11 11 -10 18 -20 16 -23z
m79 -262 c-3 -5 -12 -10 -18 -10 -7 0 -6 4 3 10 19 12 23 12 15 0z m45 -55
c11 -13 10 -14 -4 -9 -9 3 -16 10 -16 15 0 13 6 11 20 -6z m-4840 -205 c0 -5
-2 -10 -4 -10 -3 0 -8 5 -11 10 -3 6 -1 10 4 10 6 0 11 -4 11 -10z m4936 -29
c-4 -5 6 -19 21 -31 16 -12 21 -19 12 -17 -9 3 -23 0 -30 -6 -11 -10 -11 -9 0
6 11 14 11 17 -2 17 -9 0 -14 7 -12 18 5 23 4 22 11 22 3 0 3 -4 0 -9z m-4866
-5 c0 -2 -7 -7 -16 -10 -8 -3 -12 -2 -9 4 6 10 25 14 25 6z m4905 -77 c-4 -5
-12 -9 -18 -8 -9 0 -8 2 1 6 6 2 9 10 6 15 -4 7 -2 8 5 4 6 -4 9 -12 6 -17z
m40 -179 c3 -5 2 -10 -4 -10 -5 0 -13 5 -16 10 -3 6 -2 10 4 10 5 0 13 -4 16
-10z m21 -102 c10 -13 12 -18 5 -11 -7 6 -19 10 -25 9 -6 -2 -8 -1 -3 1 4 3 5
9 1 14 -10 17 3 9 22 -13z m-5116 -338 c0 -5 -5 -10 -11 -10 -5 0 -7 5 -4 10
3 6 8 10 11 10 2 0 4 -4 4 -10z m10 -75 c0 -10 -40 -10 -43 0 -4 8 3 10 19 7
13 -2 24 -6 24 -7z m5232 -635 l-9 -24 -5 22 c-4 12 -2 20 3 16 5 -3 9 0 9 7
0 7 2 10 5 7 3 -3 2 -16 -3 -28z m-2 -124 c0 -3 -4 -8 -10 -11 -5 -3 -10 -1
-10 4 0 6 5 11 10 11 6 0 10 -2 10 -4z m-5103 -122 c-3 -3 -12 -4 -19 -1 -8 3
-5 6 6 6 11 1 17 -2 13 -5z m5234 -101 c13 -17 13 -17 -6 -3 -11 8 -22 16 -24
17 -2 2 0 3 6 3 6 0 17 -8 24 -17z m-5260 -76 c-10 -9 -11 -8 -5 6 3 10 9 15
12 12 3 -3 0 -11 -7 -18z m5324 -55 c5 0 11 -6 13 -14 3 -10 2 -10 -6 1 -5 7
-11 9 -13 4 -2 -6 -13 -1 -24 10 l-20 20 20 -11 c11 -5 24 -10 30 -10z m-5210
-232 c3 -6 -1 -7 -10 -4 -11 5 -14 2 -9 -12 6 -15 4 -16 -6 -7 -7 6 -9 16 -6
22 9 14 23 14 31 1z m5298 -29 c2 -10 1 -25 -4 -32 -6 -10 -9 -4 -9 19 0 36 5
42 13 13z m14 -226 c0 -8 -4 -12 -9 -9 -5 3 -6 10 -3 15 9 13 12 11 12 -6z
m58 -34 c3 -5 2 -12 -3 -15 -5 -3 -9 1 -9 9 0 17 3 19 12 6z m35 -19 c0 -5 -7
-9 -15 -9 -8 0 -12 4 -9 9 3 4 9 8 15 8 5 0 9 -4 9 -8z m105 -140 c-3 -3 -11
0 -18 7 -9 10 -8 11 6 5 10 -3 15 -9 12 -12z m-5315 -12 c0 -5 -5 -10 -11 -10
-5 0 -7 5 -4 10 3 6 8 10 11 10 2 0 4 -4 4 -10z m77 -67 c0 -6 -4 -10 -8 -7
-4 2 -9 1 -12 -3 -2 -5 -2 -3 -1 4 2 6 -2 14 -9 16 -7 3 -3 5 9 4 11 -1 21 -7
21 -14z m63 11 c0 -8 -19 -13 -24 -6 -3 5 1 9 9 9 8 0 15 -2 15 -3z m5346 -73
c1 -14 -1 -20 -3 -13 -3 6 -8 10 -12 8 -4 -3 -7 3 -7 13 0 28 21 20 22 -8z
m-5326 -147 c0 -8 -19 -13 -24 -6 -3 5 1 9 9 9 8 0 15 -2 15 -3z m-40 -78 c0
-2 -7 -7 -16 -10 -8 -3 -12 -2 -9 4 6 10 25 14 25 6z m5668 -41 c-3 -3 -9 2
-12 12 -6 14 -5 15 5 6 7 -7 10 -15 7 -18z m141 -111 c-6 -8 -17 -14 -23 -14
-6 0 -4 5 4 10 8 5 11 10 7 10 -5 0 -5 5 -2 10 4 6 11 8 16 4 6 -4 6 -11 -2
-20z m-5869 -192 c0 -4 -10 -9 -22 -9 -18 -2 -20 0 -8 7 18 12 30 13 30 2z
m-35 -51 c3 -5 2 -12 -3 -15 -5 -3 -9 1 -9 9 0 17 3 19 12 6z m15 -37 c0 -8
-19 -13 -24 -6 -3 5 1 9 9 9 8 0 15 -2 15 -3z m-10 -174 c0 -5 -5 -10 -11 -10
-5 0 -7 5 -4 10 3 6 8 10 11 10 2 0 4 -4 4 -10z"/>
<path d="M4470 7776 c0 -2 7 -7 16 -10 8 -3 12 -2 9 4 -6 10 -25 14 -25 6z"/>
<path d="M3875 6140 c-3 -5 -1 -10 4 -10 6 0 11 5 11 10 0 6 -2 10 -4 10 -3 0
-8 -4 -11 -10z"/>
<path d="M5437 5953 c-9 -8 12 -33 27 -33 6 0 3 5 -7 11 -9 6 -15 14 -12 20 7
10 2 12 -8 2z"/>
<path d="M5515 5840 c-3 -6 1 -7 9 -4 18 7 21 14 7 14 -6 0 -13 -4 -16 -10z"/>
<path d="M3630 5748 c-12 -22 -12 -22 6 -6 10 10 15 20 12 24 -4 3 -12 -5 -18
-18z"/>
<path d="M5556 5741 c-3 -5 2 -15 12 -22 15 -12 16 -12 5 2 -7 9 -10 19 -6 22
3 4 4 7 0 7 -3 0 -8 -4 -11 -9z"/>
<path d="M3416 5677 c3 -10 9 -15 12 -12 3 3 0 11 -7 18 -10 9 -11 8 -5 -6z"/>
<path d="M5658 5518 c5 -5 16 -8 23 -6 8 3 3 7 -10 11 -17 4 -21 3 -13 -5z"/>
<path d="M1075 5450 c-3 -5 -1 -10 4 -10 6 0 11 5 11 10 0 6 -2 10 -4 10 -3 0
-8 -4 -11 -10z"/>
<path d="M2226 5151 c-4 -5 -2 -12 3 -15 5 -4 12 -2 15 3 4 5 2 12 -3 15 -5 4
-12 2 -15 -3z"/>
<path d="M5795 5130 c-3 -5 -1 -10 4 -10 6 0 11 5 11 10 0 6 -2 10 -4 10 -3 0
-8 -4 -11 -10z"/>
<path d="M5935 4800 c3 -5 8 -10 11 -10 2 0 4 5 4 10 0 6 -5 10 -11 10 -5 0
-7 -4 -4 -10z"/>
<path d="M5955 4750 c3 -5 8 -10 11 -10 2 0 4 5 4 10 0 6 -5 10 -11 10 -5 0
-7 -4 -4 -10z"/>
<path d="M6185 4469 c-4 -6 -5 -12 -2 -15 2 -3 7 2 10 11 7 17 1 20 -8 4z"/>
<path d="M1493 3784 c-6 -15 16 -38 26 -28 3 3 -1 9 -8 13 -7 5 -10 14 -7 20
4 6 5 11 1 11 -3 0 -8 -7 -12 -16z"/>
<path d="M1434 3632 c1 -13 9 -28 17 -33 12 -7 12 -9 -1 -10 -8 -1 -19 -1 -23
0 -5 1 -6 -3 -2 -9 3 -6 11 -8 16 -5 5 4 9 0 9 -7 0 -7 5 -5 12 6 8 15 7 22
-5 31 -13 9 -14 14 -4 25 8 9 8 11 0 6 -6 -3 -14 0 -17 6 -2 7 -4 3 -2 -10z"/>
<path d="M6576 3181 c-3 -5 1 -11 9 -14 9 -4 12 -1 8 9 -6 16 -10 17 -17 5z"/>
<path d="M1397 2863 c3 -7 6 -13 8 -13 2 0 5 6 8 13 3 8 -1 14 -8 14 -7 0 -11
-6 -8 -14z"/>
<path d="M6635 2781 c-3 -5 -2 -12 3 -15 5 -3 9 1 9 9 0 17 -3 19 -12 6z"/>
<path d="M6646 2572 c-3 -5 1 -9 9 -9 8 0 12 4 9 9 -3 4 -7 8 -9 8 -2 0 -6 -4
-9 -8z"/>
<path d="M1482 2430 c-7 -11 -8 -20 -3 -20 9 0 24 30 18 36 -1 2 -8 -6 -15
-16z"/>
<path d="M1500 2380 c-13 -8 -12 -10 3 -10 9 0 17 5 17 10 0 12 -1 12 -20 0z"/>
<path d="M6695 2220 c-3 -5 -1 -10 4 -10 6 0 11 5 11 10 0 6 -2 10 -4 10 -3 0
-8 -4 -11 -10z"/>
<path d="M1546 1893 c-6 -14 -5 -15 5 -6 7 7 10 15 7 18 -3 3 -9 -2 -12 -12z"/>
<path d="M6925 1827 c-15 -12 -16 -15 -4 -22 8 -5 11 -5 7 0 -4 4 0 14 10 21
23 18 11 18 -13 1z"/>
<path d="M7055 1380 c-3 -5 -2 -10 4 -10 5 0 13 5 16 10 3 6 2 10 -4 10 -5 0
-13 -4 -16 -10z"/>
<path d="M1746 1315 c4 -8 10 -12 15 -9 11 6 2 24 -11 24 -5 0 -7 -7 -4 -15z"/>
<path d="M7138 1318 c5 -5 16 -8 23 -6 8 3 3 7 -10 11 -17 4 -21 3 -13 -5z"/>
<path d="M7180 1256 c0 -2 8 -10 18 -17 15 -13 16 -12 3 4 -13 16 -21 21 -21
13z"/>
<path d="M1895 1140 c4 -6 11 -8 16 -5 14 9 11 15 -7 15 -8 0 -12 -5 -9 -10z"/>
<path d="M1945 1110 c-3 -6 1 -7 9 -4 18 7 21 14 7 14 -6 0 -13 -4 -16 -10z"/>
<path d="M1834 1098 c-4 -7 -4 -10 1 -6 4 4 15 2 24 -5 14 -11 14 -10 2 6 -16
20 -18 21 -27 5z"/>
<path d="M7464 1031 c15 -17 46 -19 46 -4 0 3 -7 2 -15 -1 -9 -3 -18 1 -21 9
-4 8 -11 15 -17 15 -5 0 -2 -9 7 -19z"/>
<path d="M1875 1027 c-12 -9 -14 -16 -7 -21 6 -3 16 3 22 14 13 24 10 25 -15
7z"/>
<path d="M7582 939 c2 -7 10 -15 17 -17 8 -3 12 1 9 9 -2 7 -10 15 -17 17 -8
3 -12 -1 -9 -9z"/>
<path d="M1830 570 c-8 -5 -12 -11 -9 -14 2 -3 11 -1 19 4 8 5 12 11 9 14 -2
3 -11 1 -19 -4z"/>
<path d="M1823 375 c-8 -9 -9 -16 -3 -20 6 -3 13 1 16 10 9 21 2 26 -13 10z"/>
<path d="M1867 179 c7 -7 15 -10 18 -7 3 3 -2 9 -12 12 -14 6 -15 5 -6 -5z"/>
<path d="M1876 94 c-4 -10 -1 -14 6 -11 7 2 21 0 32 -5 13 -7 16 -7 12 1 -4 6
-15 15 -26 21 -13 7 -19 6 -24 -6z"/>
</g>
</svg>
